{
    "asset" : {
        "generator" : "Khronos glTF Blender I/O v3.4.50",
        "version" : "2.0"
    },
    "scene" : 0,
    "scenes" : [
        {
            "name" : "Scene",
            "nodes" : [
                2
            ]
        }
    ],
    "nodes" : [
        {
            "name" : "03"
        },
        {
            "mesh" : 0,
            "name" : "Mesh",
            "skin" : 0
        },
        {
            "children" : [
                1,
                0
            ],
            "name" : "root"
        }
    ],
    "animations" : [
        {
            "channels" : [
                {
                    "sampler" : 0,
                    "target" : {
                        "node" : 0,
                        "path" : "translation"
                    }
                },
                {
                    "sampler" : 1,
                    "target" : {
                        "node" : 0,
                        "path" : "rotation"
                    }
                },
                {
                    "sampler" : 2,
                    "target" : {
                        "node" : 0,
                        "path" : "scale"
                    }
                },
                {
                    "sampler" : 3,
                    "target" : {
                        "node" : 2,
                        "path" : "translation"
                    }
                },
                {
                    "sampler" : 4,
                    "target" : {
                        "node" : 2,
                        "path" : "rotation"
                    }
                },
                {
                    "sampler" : 5,
                    "target" : {
                        "node" : 2,
                        "path" : "scale"
                    }
                }
            ],
            "name" : "text_action",
            "samplers" : [
                {
                    "input" : 25,
                    "interpolation" : "LINEAR",
                    "output" : 26
                },
                {
                    "input" : 25,
                    "interpolation" : "LINEAR",
                    "output" : 27
                },
                {
                    "input" : 25,
                    "interpolation" : "LINEAR",
                    "output" : 28
                },
                {
                    "input" : 25,
                    "interpolation" : "LINEAR",
                    "output" : 29
                },
                {
                    "input" : 25,
                    "interpolation" : "LINEAR",
                    "output" : 30
                },
                {
                    "input" : 25,
                    "interpolation" : "LINEAR",
                    "output" : 31
                }
            ]
        }
    ],
    "materials" : [
        {
            "doubleSided" : true,
            "name" : "pink",
            "pbrMetallicRoughness" : {
                "baseColorFactor" : [
                    0.9603761434555054,
                    0.011058550328016281,
                    0.4852323532104492,
                    1
                ],
                "metallicFactor" : 0,
                "roughnessFactor" : 0.5
            }
        },
        {
            "doubleSided" : true,
            "name" : "pinker",
            "pbrMetallicRoughness" : {
                "baseColorFactor" : [
                    0.9822508096694946,
                    0.005605391692370176,
                    0.11953844130039215,
                    1
                ],
                "metallicFactor" : 0,
                "roughnessFactor" : 0.5
            }
        },
        {
            "doubleSided" : true,
            "name" : "yellow",
            "pbrMetallicRoughness" : {
                "baseColorFactor" : [
                    0.9473066926002502,
                    0.41254276037216187,
                    0.008023194968700409,
                    1
                ],
                "metallicFactor" : 0,
                "roughnessFactor" : 0.5
            }
        },
        {
            "doubleSided" : true,
            "name" : "white",
            "pbrMetallicRoughness" : {
                "baseColorFactor" : [
                    0.800000011920929,
                    0.800000011920929,
                    0.800000011920929,
                    1
                ],
                "metallicFactor" : 0,
                "roughnessFactor" : 0.5
            }
        }
    ],
    "meshes" : [
        {
            "name" : "Plane",
            "primitives" : [
                {
                    "attributes" : {
                        "POSITION" : 0,
                        "TEXCOORD_0" : 1,
                        "NORMAL" : 2,
                        "JOINTS_0" : 3,
                        "WEIGHTS_0" : 4
                    },
                    "indices" : 5,
                    "material" : 0
                },
                {
                    "attributes" : {
                        "POSITION" : 6,
                        "TEXCOORD_0" : 7,
                        "NORMAL" : 8,
                        "JOINTS_0" : 9,
                        "WEIGHTS_0" : 10
                    },
                    "indices" : 11,
                    "material" : 1
                },
                {
                    "attributes" : {
                        "POSITION" : 12,
                        "TEXCOORD_0" : 13,
                        "NORMAL" : 14,
                        "JOINTS_0" : 15,
                        "WEIGHTS_0" : 16
                    },
                    "indices" : 17,
                    "material" : 2
                },
                {
                    "attributes" : {
                        "POSITION" : 18,
                        "TEXCOORD_0" : 19,
                        "NORMAL" : 20,
                        "JOINTS_0" : 21,
                        "WEIGHTS_0" : 22
                    },
                    "indices" : 23,
                    "material" : 3
                }
            ]
        }
    ],
    "skins" : [
        {
            "inverseBindMatrices" : 24,
            "joints" : [
                0
            ],
            "name" : "root"
        }
    ],
    "accessors" : [
        {
            "bufferView" : 0,
            "componentType" : 5126,
            "count" : 1805,
            "max" : [
                2.063709259033203,
                1.6332714557647705,
                0.08891992270946503
            ],
            "min" : [
                -2.1257081031799316,
                -1.4817293882369995,
                0.0298004187643528
            ],
            "type" : "VEC3"
        },
        {
            "bufferView" : 1,
            "componentType" : 5126,
            "count" : 1805,
            "type" : "VEC2"
        },
        {
            "bufferView" : 2,
            "componentType" : 5126,
            "count" : 1805,
            "type" : "VEC3"
        },
        {
            "bufferView" : 3,
            "componentType" : 5121,
            "count" : 1805,
            "type" : "VEC4"
        },
        {
            "bufferView" : 4,
            "componentType" : 5126,
            "count" : 1805,
            "type" : "VEC4"
        },
        {
            "bufferView" : 5,
            "componentType" : 5123,
            "count" : 5271,
            "type" : "SCALAR"
        },
        {
            "bufferView" : 6,
            "componentType" : 5126,
            "count" : 9559,
            "max" : [
                2.0803775787353516,
                1.649926781654358,
                0.08891992270946503
            ],
            "min" : [
                -2.142406702041626,
                -2.287337064743042,
                -0.35658878087997437
            ],
            "type" : "VEC3"
        },
        {
            "bufferView" : 7,
            "componentType" : 5126,
            "count" : 9559,
            "type" : "VEC2"
        },
        {
            "bufferView" : 8,
            "componentType" : 5126,
            "count" : 9559,
            "type" : "VEC3"
        },
        {
            "bufferView" : 9,
            "componentType" : 5121,
            "count" : 9559,
            "type" : "VEC4"
        },
        {
            "bufferView" : 10,
            "componentType" : 5126,
            "count" : 9559,
            "type" : "VEC4"
        },
        {
            "bufferView" : 11,
            "componentType" : 5123,
            "count" : 16311,
            "type" : "SCALAR"
        },
        {
            "bufferView" : 12,
            "componentType" : 5126,
            "count" : 10494,
            "max" : [
                2.099335193634033,
                1.668869137763977,
                0.08891992270946503
            ],
            "min" : [
                -2.1613991260528564,
                -2.287337064743042,
                -0.06095554679632187
            ],
            "type" : "VEC3"
        },
        {
            "bufferView" : 13,
            "componentType" : 5126,
            "count" : 10494,
            "type" : "VEC2"
        },
        {
            "bufferView" : 14,
            "componentType" : 5126,
            "count" : 10494,
            "type" : "VEC3"
        },
        {
            "bufferView" : 15,
            "componentType" : 5121,
            "count" : 10494,
            "type" : "VEC4"
        },
        {
            "bufferView" : 16,
            "componentType" : 5126,
            "count" : 10494,
            "type" : "VEC4"
        },
        {
            "bufferView" : 17,
            "componentType" : 5123,
            "count" : 17922,
            "type" : "SCALAR"
        },
        {
            "bufferView" : 18,
            "componentType" : 5126,
            "count" : 16412,
            "max" : [
                2.099335193634033,
                1.668869137763977,
                0.08891992270946503
            ],
            "min" : [
                -2.1613991260528564,
                -2.278545379638672,
                -0.4319804310798645
            ],
            "type" : "VEC3"
        },
        {
            "bufferView" : 19,
            "componentType" : 5126,
            "count" : 16412,
            "type" : "VEC2"
        },
        {
            "bufferView" : 20,
            "componentType" : 5126,
            "count" : 16412,
            "type" : "VEC3"
        },
        {
            "bufferView" : 21,
            "componentType" : 5121,
            "count" : 16412,
            "type" : "VEC4"
        },
        {
            "bufferView" : 22,
            "componentType" : 5126,
            "count" : 16412,
            "type" : "VEC4"
        },
        {
            "bufferView" : 23,
            "componentType" : 5123,
            "count" : 27786,
            "type" : "SCALAR"
        },
        {
            "bufferView" : 24,
            "componentType" : 5126,
            "count" : 1,
            "type" : "MAT4"
        },
        {
            "bufferView" : 25,
            "componentType" : 5126,
            "count" : 698,
            "max" : [
                23.233333333333334
            ],
            "min" : [
                0
            ],
            "type" : "SCALAR"
        },
        {
            "bufferView" : 26,
            "componentType" : 5126,
            "count" : 698,
            "type" : "VEC3"
        },
        {
            "bufferView" : 27,
            "componentType" : 5126,
            "count" : 698,
            "type" : "VEC4"
        },
        {
            "bufferView" : 28,
            "componentType" : 5126,
            "count" : 698,
            "type" : "VEC3"
        },
        {
            "bufferView" : 29,
            "componentType" : 5126,
            "count" : 698,
            "type" : "VEC3"
        },
        {
            "bufferView" : 30,
            "componentType" : 5126,
            "count" : 698,
            "type" : "VEC4"
        },
        {
            "bufferView" : 31,
            "componentType" : 5126,
            "count" : 698,
            "type" : "VEC3"
        }
    ],
    "bufferViews" : [
        {
            "buffer" : 0,
            "byteLength" : 21660,
            "byteOffset" : 0,
            "target" : 34962
        },
        {
            "buffer" : 0,
            "byteLength" : 14440,
            "byteOffset" : 21660,
            "target" : 34962
        },
        {
            "buffer" : 0,
            "byteLength" : 21660,
            "byteOffset" : 36100,
            "target" : 34962
        },
        {
            "buffer" : 0,
            "byteLength" : 7220,
            "byteOffset" : 57760,
            "target" : 34962
        },
        {
            "buffer" : 0,
            "byteLength" : 28880,
            "byteOffset" : 64980,
            "target" : 34962
        },
        {
            "buffer" : 0,
            "byteLength" : 10542,
            "byteOffset" : 93860,
            "target" : 34963
        },
        {
            "buffer" : 0,
            "byteLength" : 114708,
            "byteOffset" : 104404,
            "target" : 34962
        },
        {
            "buffer" : 0,
            "byteLength" : 76472,
            "byteOffset" : 219112,
            "target" : 34962
        },
        {
            "buffer" : 0,
            "byteLength" : 114708,
            "byteOffset" : 295584,
            "target" : 34962
        },
        {
            "buffer" : 0,
            "byteLength" : 38236,
            "byteOffset" : 410292,
            "target" : 34962
        },
        {
            "buffer" : 0,
            "byteLength" : 152944,
            "byteOffset" : 448528,
            "target" : 34962
        },
        {
            "buffer" : 0,
            "byteLength" : 32622,
            "byteOffset" : 601472,
            "target" : 34963
        },
        {
            "buffer" : 0,
            "byteLength" : 125928,
            "byteOffset" : 634096,
            "target" : 34962
        },
        {
            "buffer" : 0,
            "byteLength" : 83952,
            "byteOffset" : 760024,
            "target" : 34962
        },
        {
            "buffer" : 0,
            "byteLength" : 125928,
            "byteOffset" : 843976,
            "target" : 34962
        },
        {
            "buffer" : 0,
            "byteLength" : 41976,
            "byteOffset" : 969904,
            "target" : 34962
        },
        {
            "buffer" : 0,
            "byteLength" : 167904,
            "byteOffset" : 1011880,
            "target" : 34962
        },
        {
            "buffer" : 0,
            "byteLength" : 35844,
            "byteOffset" : 1179784,
            "target" : 34963
        },
        {
            "buffer" : 0,
            "byteLength" : 196944,
            "byteOffset" : 1215628,
            "target" : 34962
        },
        {
            "buffer" : 0,
            "byteLength" : 131296,
            "byteOffset" : 1412572,
            "target" : 34962
        },
        {
            "buffer" : 0,
            "byteLength" : 196944,
            "byteOffset" : 1543868,
            "target" : 34962
        },
        {
            "buffer" : 0,
            "byteLength" : 65648,
            "byteOffset" : 1740812,
            "target" : 34962
        },
        {
            "buffer" : 0,
            "byteLength" : 262592,
            "byteOffset" : 1806460,
            "target" : 34962
        },
        {
            "buffer" : 0,
            "byteLength" : 55572,
            "byteOffset" : 2069052,
            "target" : 34963
        },
        {
            "buffer" : 0,
            "byteLength" : 64,
            "byteOffset" : 2124624
        },
        {
            "buffer" : 0,
            "byteLength" : 2792,
            "byteOffset" : 2124688
        },
        {
            "buffer" : 0,
            "byteLength" : 8376,
            "byteOffset" : 2127480
        },
        {
            "buffer" : 0,
            "byteLength" : 11168,
            "byteOffset" : 2135856
        },
        {
            "buffer" : 0,
            "byteLength" : 8376,
            "byteOffset" : 2147024
        },
        {
            "buffer" : 0,
            "byteLength" : 8376,
            "byteOffset" : 2155400
        },
        {
            "buffer" : 0,
            "byteLength" : 11168,
            "byteOffset" : 2163776
        },
        {
            "buffer" : 0,
            "byteLength" : 8376,
            "byteOffset" : 2174944
        }
    ],
    "buffers" : [
        {
            "byteLength" : 2183320,
            "uri" : "text.bin"
        }
    ]
}
