{
    "asset" : {
        "generator" : "Khronos glTF Blender I/O v3.4.50",
        "version" : "2.0"
    },
    "scene" : 0,
    "scenes" : [
        {
            "name" : "Scene",
            "nodes" : [
                7
            ]
        }
    ],
    "nodes" : [
        {
            "name" : "Text"
        },
        {
            "name" : "mic",
            "rotation" : [
                0,
                1.1920928955078125e-07,
                0,
                1
            ],
            "translation" : [
                0,
                4.494866847991943,
                0
            ]
        },
        {
            "name" : "mic_top",
            "rotation" : [
                0,
                1.1920928244535389e-07,
                0,
                1
            ],
            "scale" : [
                1,
                0.9999999403953552,
                1
            ],
            "translation" : [
                -0.015981540083885193,
                3.690918445587158,
                -0.004592418670654297
            ]
        },
        {
            "children" : [
                1,
                2
            ],
            "name" : "mic_base",
            "translation" : [
                0.10479927062988281,
                -4.886258125305176,
                -2.4060959815979004
            ]
        },
        {
            "children" : [
                0,
                3
            ],
            "name" : "wall"
        },
        {
            "name" : "hook",
            "rotation" : [
                -2.6692541510442425e-08,
                2.6692541510442425e-08,
                0.7071068286895752,
                0.7071068286895752
            ],
            "translation" : [
                6.204409122467041,
                -1.1580138206481934,
                -5.173794746398926
            ]
        },
        {
            "mesh" : 0,
            "name" : "Cube.001",
            "skin" : 0
        },
        {
            "children" : [
                6,
                4,
                5
            ],
            "name" : "root"
        }
    ],
    "animations" : [
        {
            "channels" : [
                {
                    "sampler" : 0,
                    "target" : {
                        "node" : 4,
                        "path" : "translation"
                    }
                },
                {
                    "sampler" : 1,
                    "target" : {
                        "node" : 4,
                        "path" : "rotation"
                    }
                },
                {
                    "sampler" : 2,
                    "target" : {
                        "node" : 4,
                        "path" : "scale"
                    }
                },
                {
                    "sampler" : 3,
                    "target" : {
                        "node" : 0,
                        "path" : "translation"
                    }
                },
                {
                    "sampler" : 4,
                    "target" : {
                        "node" : 0,
                        "path" : "rotation"
                    }
                },
                {
                    "sampler" : 5,
                    "target" : {
                        "node" : 0,
                        "path" : "scale"
                    }
                },
                {
                    "sampler" : 6,
                    "target" : {
                        "node" : 3,
                        "path" : "translation"
                    }
                },
                {
                    "sampler" : 7,
                    "target" : {
                        "node" : 3,
                        "path" : "rotation"
                    }
                },
                {
                    "sampler" : 8,
                    "target" : {
                        "node" : 3,
                        "path" : "scale"
                    }
                },
                {
                    "sampler" : 9,
                    "target" : {
                        "node" : 1,
                        "path" : "translation"
                    }
                },
                {
                    "sampler" : 10,
                    "target" : {
                        "node" : 1,
                        "path" : "rotation"
                    }
                },
                {
                    "sampler" : 11,
                    "target" : {
                        "node" : 1,
                        "path" : "scale"
                    }
                },
                {
                    "sampler" : 12,
                    "target" : {
                        "node" : 2,
                        "path" : "translation"
                    }
                },
                {
                    "sampler" : 13,
                    "target" : {
                        "node" : 2,
                        "path" : "rotation"
                    }
                },
                {
                    "sampler" : 14,
                    "target" : {
                        "node" : 2,
                        "path" : "scale"
                    }
                },
                {
                    "sampler" : 15,
                    "target" : {
                        "node" : 5,
                        "path" : "translation"
                    }
                },
                {
                    "sampler" : 16,
                    "target" : {
                        "node" : 5,
                        "path" : "rotation"
                    }
                },
                {
                    "sampler" : 17,
                    "target" : {
                        "node" : 5,
                        "path" : "scale"
                    }
                },
                {
                    "sampler" : 18,
                    "target" : {
                        "node" : 7,
                        "path" : "translation"
                    }
                },
                {
                    "sampler" : 19,
                    "target" : {
                        "node" : 7,
                        "path" : "rotation"
                    }
                },
                {
                    "sampler" : 20,
                    "target" : {
                        "node" : 7,
                        "path" : "scale"
                    }
                }
            ],
            "name" : "seinfeld_action",
            "samplers" : [
                {
                    "input" : 9,
                    "interpolation" : "LINEAR",
                    "output" : 10
                },
                {
                    "input" : 9,
                    "interpolation" : "LINEAR",
                    "output" : 11
                },
                {
                    "input" : 9,
                    "interpolation" : "LINEAR",
                    "output" : 12
                },
                {
                    "input" : 9,
                    "interpolation" : "LINEAR",
                    "output" : 13
                },
                {
                    "input" : 9,
                    "interpolation" : "LINEAR",
                    "output" : 14
                },
                {
                    "input" : 9,
                    "interpolation" : "LINEAR",
                    "output" : 15
                },
                {
                    "input" : 9,
                    "interpolation" : "LINEAR",
                    "output" : 16
                },
                {
                    "input" : 9,
                    "interpolation" : "LINEAR",
                    "output" : 17
                },
                {
                    "input" : 9,
                    "interpolation" : "LINEAR",
                    "output" : 18
                },
                {
                    "input" : 9,
                    "interpolation" : "LINEAR",
                    "output" : 19
                },
                {
                    "input" : 9,
                    "interpolation" : "LINEAR",
                    "output" : 20
                },
                {
                    "input" : 9,
                    "interpolation" : "LINEAR",
                    "output" : 21
                },
                {
                    "input" : 9,
                    "interpolation" : "LINEAR",
                    "output" : 22
                },
                {
                    "input" : 9,
                    "interpolation" : "LINEAR",
                    "output" : 23
                },
                {
                    "input" : 9,
                    "interpolation" : "LINEAR",
                    "output" : 24
                },
                {
                    "input" : 9,
                    "interpolation" : "LINEAR",
                    "output" : 25
                },
                {
                    "input" : 9,
                    "interpolation" : "LINEAR",
                    "output" : 26
                },
                {
                    "input" : 9,
                    "interpolation" : "LINEAR",
                    "output" : 27
                },
                {
                    "input" : 9,
                    "interpolation" : "LINEAR",
                    "output" : 28
                },
                {
                    "input" : 9,
                    "interpolation" : "LINEAR",
                    "output" : 29
                },
                {
                    "input" : 9,
                    "interpolation" : "LINEAR",
                    "output" : 30
                }
            ]
        },
        {
            "channels" : [
                {
                    "sampler" : 0,
                    "target" : {
                        "node" : 6,
                        "path" : "rotation"
                    }
                }
            ],
            "name" : "Cube.001Action",
            "samplers" : [
                {
                    "input" : 31,
                    "interpolation" : "STEP",
                    "output" : 32
                }
            ]
        }
    ],
    "materials" : [
        {
            "alphaMode" : "BLEND",
            "doubleSided" : true,
            "emissiveFactor" : [
                1,
                1,
                1
            ],
            "emissiveTexture" : {
                "index" : 0
            },
            "name" : "palette",
            "pbrMetallicRoughness" : {
                "baseColorFactor" : [
                    0,
                    0,
                    0,
                    1
                ]
            }
        }
    ],
    "meshes" : [
        {
            "name" : "Cube.006",
            "primitives" : [
                {
                    "attributes" : {
                        "_.HIDE_VERT" : 0,
                        "_.HIDE_POLY" : 1,
                        "POSITION" : 2,
                        "TEXCOORD_0" : 3,
                        "NORMAL" : 4,
                        "JOINTS_0" : 5,
                        "WEIGHTS_0" : 6
                    },
                    "indices" : 7,
                    "material" : 0
                }
            ]
        }
    ],
    "textures" : [
        {
            "sampler" : 0,
            "source" : 0
        }
    ],
    "images" : [
        {
            "mimeType" : "image/png",
            "name" : "pasted_image6",
            "uri" : "pasted_image6.png"
        }
    ],
    "skins" : [
        {
            "inverseBindMatrices" : 8,
            "joints" : [
                4,
                0,
                3,
                1,
                2,
                5
            ],
            "name" : "root"
        }
    ],
    "accessors" : [
        {
            "bufferView" : 0,
            "componentType" : 5126,
            "count" : 7776,
            "type" : "SCALAR"
        },
        {
            "bufferView" : 1,
            "componentType" : 5126,
            "count" : 7776,
            "type" : "SCALAR"
        },
        {
            "bufferView" : 2,
            "componentType" : 5126,
            "count" : 7776,
            "max" : [
                7.154358863830566,
                2.852691411972046,
                0.18918514251708984
            ],
            "min" : [
                -5.822627544403076,
                -5.502002716064453,
                -7.721065521240234
            ],
            "type" : "VEC3"
        },
        {
            "bufferView" : 3,
            "componentType" : 5126,
            "count" : 7776,
            "type" : "VEC2"
        },
        {
            "bufferView" : 4,
            "componentType" : 5126,
            "count" : 7776,
            "type" : "VEC3"
        },
        {
            "bufferView" : 5,
            "componentType" : 5121,
            "count" : 7776,
            "type" : "VEC4"
        },
        {
            "bufferView" : 6,
            "componentType" : 5126,
            "count" : 7776,
            "type" : "VEC4"
        },
        {
            "bufferView" : 7,
            "componentType" : 5123,
            "count" : 15078,
            "type" : "SCALAR"
        },
        {
            "bufferView" : 8,
            "componentType" : 5126,
            "count" : 6,
            "type" : "MAT4"
        },
        {
            "bufferView" : 9,
            "componentType" : 5126,
            "count" : 1176,
            "max" : [
                39.166666666666664
            ],
            "min" : [
                0
            ],
            "type" : "SCALAR"
        },
        {
            "bufferView" : 10,
            "componentType" : 5126,
            "count" : 1176,
            "type" : "VEC3"
        },
        {
            "bufferView" : 11,
            "componentType" : 5126,
            "count" : 1176,
            "type" : "VEC4"
        },
        {
            "bufferView" : 12,
            "componentType" : 5126,
            "count" : 1176,
            "type" : "VEC3"
        },
        {
            "bufferView" : 13,
            "componentType" : 5126,
            "count" : 1176,
            "type" : "VEC3"
        },
        {
            "bufferView" : 14,
            "componentType" : 5126,
            "count" : 1176,
            "type" : "VEC4"
        },
        {
            "bufferView" : 15,
            "componentType" : 5126,
            "count" : 1176,
            "type" : "VEC3"
        },
        {
            "bufferView" : 16,
            "componentType" : 5126,
            "count" : 1176,
            "type" : "VEC3"
        },
        {
            "bufferView" : 17,
            "componentType" : 5126,
            "count" : 1176,
            "type" : "VEC4"
        },
        {
            "bufferView" : 18,
            "componentType" : 5126,
            "count" : 1176,
            "type" : "VEC3"
        },
        {
            "bufferView" : 19,
            "componentType" : 5126,
            "count" : 1176,
            "type" : "VEC3"
        },
        {
            "bufferView" : 20,
            "componentType" : 5126,
            "count" : 1176,
            "type" : "VEC4"
        },
        {
            "bufferView" : 21,
            "componentType" : 5126,
            "count" : 1176,
            "type" : "VEC3"
        },
        {
            "bufferView" : 22,
            "componentType" : 5126,
            "count" : 1176,
            "type" : "VEC3"
        },
        {
            "bufferView" : 23,
            "componentType" : 5126,
            "count" : 1176,
            "type" : "VEC4"
        },
        {
            "bufferView" : 24,
            "componentType" : 5126,
            "count" : 1176,
            "type" : "VEC3"
        },
        {
            "bufferView" : 25,
            "componentType" : 5126,
            "count" : 1176,
            "type" : "VEC3"
        },
        {
            "bufferView" : 26,
            "componentType" : 5126,
            "count" : 1176,
            "type" : "VEC4"
        },
        {
            "bufferView" : 27,
            "componentType" : 5126,
            "count" : 1176,
            "type" : "VEC3"
        },
        {
            "bufferView" : 28,
            "componentType" : 5126,
            "count" : 1176,
            "type" : "VEC3"
        },
        {
            "bufferView" : 29,
            "componentType" : 5126,
            "count" : 1176,
            "type" : "VEC4"
        },
        {
            "bufferView" : 30,
            "componentType" : 5126,
            "count" : 1176,
            "type" : "VEC3"
        },
        {
            "bufferView" : 31,
            "componentType" : 5126,
            "count" : 1,
            "max" : [
                35.36666666666667
            ],
            "min" : [
                35.36666666666667
            ],
            "type" : "SCALAR"
        },
        {
            "bufferView" : 32,
            "componentType" : 5126,
            "count" : 1,
            "type" : "VEC4"
        }
    ],
    "bufferViews" : [
        {
            "buffer" : 0,
            "byteLength" : 31104,
            "byteOffset" : 0,
            "target" : 34962
        },
        {
            "buffer" : 0,
            "byteLength" : 31104,
            "byteOffset" : 31104,
            "target" : 34962
        },
        {
            "buffer" : 0,
            "byteLength" : 93312,
            "byteOffset" : 62208,
            "target" : 34962
        },
        {
            "buffer" : 0,
            "byteLength" : 62208,
            "byteOffset" : 155520,
            "target" : 34962
        },
        {
            "buffer" : 0,
            "byteLength" : 93312,
            "byteOffset" : 217728,
            "target" : 34962
        },
        {
            "buffer" : 0,
            "byteLength" : 31104,
            "byteOffset" : 311040,
            "target" : 34962
        },
        {
            "buffer" : 0,
            "byteLength" : 124416,
            "byteOffset" : 342144,
            "target" : 34962
        },
        {
            "buffer" : 0,
            "byteLength" : 30156,
            "byteOffset" : 466560,
            "target" : 34963
        },
        {
            "buffer" : 0,
            "byteLength" : 384,
            "byteOffset" : 496716
        },
        {
            "buffer" : 0,
            "byteLength" : 4704,
            "byteOffset" : 497100
        },
        {
            "buffer" : 0,
            "byteLength" : 14112,
            "byteOffset" : 501804
        },
        {
            "buffer" : 0,
            "byteLength" : 18816,
            "byteOffset" : 515916
        },
        {
            "buffer" : 0,
            "byteLength" : 14112,
            "byteOffset" : 534732
        },
        {
            "buffer" : 0,
            "byteLength" : 14112,
            "byteOffset" : 548844
        },
        {
            "buffer" : 0,
            "byteLength" : 18816,
            "byteOffset" : 562956
        },
        {
            "buffer" : 0,
            "byteLength" : 14112,
            "byteOffset" : 581772
        },
        {
            "buffer" : 0,
            "byteLength" : 14112,
            "byteOffset" : 595884
        },
        {
            "buffer" : 0,
            "byteLength" : 18816,
            "byteOffset" : 609996
        },
        {
            "buffer" : 0,
            "byteLength" : 14112,
            "byteOffset" : 628812
        },
        {
            "buffer" : 0,
            "byteLength" : 14112,
            "byteOffset" : 642924
        },
        {
            "buffer" : 0,
            "byteLength" : 18816,
            "byteOffset" : 657036
        },
        {
            "buffer" : 0,
            "byteLength" : 14112,
            "byteOffset" : 675852
        },
        {
            "buffer" : 0,
            "byteLength" : 14112,
            "byteOffset" : 689964
        },
        {
            "buffer" : 0,
            "byteLength" : 18816,
            "byteOffset" : 704076
        },
        {
            "buffer" : 0,
            "byteLength" : 14112,
            "byteOffset" : 722892
        },
        {
            "buffer" : 0,
            "byteLength" : 14112,
            "byteOffset" : 737004
        },
        {
            "buffer" : 0,
            "byteLength" : 18816,
            "byteOffset" : 751116
        },
        {
            "buffer" : 0,
            "byteLength" : 14112,
            "byteOffset" : 769932
        },
        {
            "buffer" : 0,
            "byteLength" : 14112,
            "byteOffset" : 784044
        },
        {
            "buffer" : 0,
            "byteLength" : 18816,
            "byteOffset" : 798156
        },
        {
            "buffer" : 0,
            "byteLength" : 14112,
            "byteOffset" : 816972
        },
        {
            "buffer" : 0,
            "byteLength" : 4,
            "byteOffset" : 831084
        },
        {
            "buffer" : 0,
            "byteLength" : 16,
            "byteOffset" : 831088
        }
    ],
    "samplers" : [
        {
            "magFilter" : 9729,
            "minFilter" : 9987
        }
    ],
    "buffers" : [
        {
            "byteLength" : 831104,
            "uri" : "seinfeld.bin"
        }
    ]
}
