<?xml version="1.0" encoding="utf-8"?>
<!-- Generator: Adobe Illustrator 27.7.0, SVG Export Plug-In . SVG Version: 6.00 Build 0)  -->
<svg version="1.1" id="Layer_1" xmlns="http://www.w3.org/2000/svg" xmlns:xlink="http://www.w3.org/1999/xlink" x="0px" y="0px"
	 viewBox="0 0 24 24" style="enable-background:new 0 0 24 24;" xml:space="preserve">
<style type="text/css">
	
		.st0{display:none;opacity:0.5;fill-rule:evenodd;clip-rule:evenodd;stroke:#000000;stroke-width:2;stroke-linejoin:round;enable-background:new    ;}
	.st1{fill:none;stroke:#FFFFFF;stroke-width:2;stroke-linejoin:round;}
	.st2{fill-rule:evenodd;clip-rule:evenodd;}
</style>
<path class="st0" d="M11,3v5.5l1,1l1-1V3H11z M3,11v2h5.5l1-1l-1-1H3z M15.5,11l-1,1l1,1H21v-2H15.5z M12,14.5l-1,1V21h2v-5.5
	L12,14.5z"/>
<path class="st1" d="M10,2v5.5l1,1l1-1V2L10,2z M2,10v2h5.5l1-1l-1-1H2z M14.5,10l-1,1l1,1H20v-2H14.5z M11,13.5l-1,1V20h2v-5.5
	L11,13.5z"/>
<path class="st2" d="M10.7,0v7.3L12,8.7l1.3-1.3V0L10.7,0z M0,10.7v2.7h7.3L8.7,12l-1.3-1.3H0z M16.7,10.7L15.3,12l1.3,1.3H24v-2.7
	H16.7z M12,15.3l-1.3,1.3V24h2.7v-7.3L12,15.3z"/>
</svg>
